<?xml version="1.0" encoding="UTF-8" standalone="no"?>
<!-- Created with Inkscape (http://www.inkscape.org/) -->

<svg
   xmlns:dc="http://purl.org/dc/elements/1.1/"
   xmlns:cc="http://creativecommons.org/ns#"
   xmlns:rdf="http://www.w3.org/1999/02/22-rdf-syntax-ns#"
   xmlns:svg="http://www.w3.org/2000/svg"
   xmlns="http://www.w3.org/2000/svg"
   xmlns:sodipodi="http://sodipodi.sourceforge.net/DTD/sodipodi-0.dtd"
   xmlns:inkscape="http://www.inkscape.org/namespaces/inkscape"
   width="34in"
   height="12in"
   viewBox="0 0 3060 1080"
   id="svg2"
   version="1.1"
   inkscape:version="0.91 r13725"
   sodipodi:docname="Batman Logo Laser Path.svg">
  <defs
     id="defs4" />
  <sodipodi:namedview
     id="base"
     pagecolor="#ffffff"
     bordercolor="#666666"
     borderopacity="1.0"
     inkscape:pageopacity="0.0"
     inkscape:pageshadow="2"
     inkscape:zoom="0.35355339"
     inkscape:cx="1509.2292"
     inkscape:cy="612.78741"
     inkscape:document-units="px"
     inkscape:current-layer="layer1"
     showgrid="false"
     units="in"
     showguides="true"
     inkscape:window-width="1920"
     inkscape:window-height="1018"
     inkscape:window-x="-8"
     inkscape:window-y="-8"
     inkscape:window-maximized="1" />
  <metadata
     id="metadata7">
    <rdf:RDF>
      <cc:Work
         rdf:about="">
        <dc:format>image/svg+xml</dc:format>
        <dc:type
           rdf:resource="http://purl.org/dc/dcmitype/StillImage" />
        <dc:title></dc:title>
      </cc:Work>
    </rdf:RDF>
  </metadata>
  <g
     inkscape:label="Layer 1"
     inkscape:groupmode="layer"
     id="layer1"
     transform="translate(0,27.637855)">
    <path
       style="color:#000000;font-style:normal;font-variant:normal;font-weight:normal;font-stretch:normal;font-size:medium;line-height:normal;font-family:sans-serif;text-indent:0;text-align:start;text-decoration:none;text-decoration-line:none;text-decoration-style:solid;text-decoration-color:#000000;letter-spacing:normal;word-spacing:normal;text-transform:none;direction:ltr;block-progression:tb;writing-mode:lr-tb;baseline-shift:baseline;text-anchor:start;white-space:normal;clip-rule:nonzero;display:inline;overflow:visible;visibility:visible;opacity:1;isolation:auto;mix-blend-mode:normal;color-interpolation:sRGB;color-interpolation-filters:linearRGB;solid-color:#000000;solid-opacity:1;fill-opacity:1;fill-rule:nonzero;stroke:none;stroke-width:1;stroke-linecap:butt;stroke-linejoin:miter;stroke-miterlimit:4;stroke-dasharray:none;stroke-dashoffset:0;stroke-opacity:1;color-rendering:auto;image-rendering:auto;shape-rendering:auto;text-rendering:auto;enable-background:accumulate"
       d="m 869.44211,-15.895126 c -91.21001,-0.01215 -216.95389,0.03462 -355.21492,0.142532 L 11.460509,-15.36008 11.25,-14.276838 32.105783,-5.8718082 C 78.299524,12.746431 139.04554,41.800202 178.27826,64.039248 268.05624,114.92983 338.4259,173.27157 385.63882,235.9224 c 35.9727,47.73519 61.97533,103.70714 72.45253,155.92608 6.70448,33.41566 7.8628,45.72447 7.75595,82.41663 -0.10935,37.55978 -2.25296,58.70117 -9.37206,92.48381 -1.07346,5.09404 -1.96072,9.8105 -2.5283,13.31692 -0.28379,1.75321 -0.48727,3.20185 -0.59426,4.25405 -0.0534,0.52609 -0.0838,0.95232 -0.0856,1.28278 -9e-4,0.16524 0.004,0.3057 0.0241,0.44076 0.0192,0.13506 -0.004,0.27186 0.21709,0.49338 0.13478,0.13479 0.22025,0.14851 0.29603,0.17323 0.0758,0.0247 0.14461,0.0396 0.21927,0.0527 0.14931,0.026 0.32328,0.0445 0.53505,0.0592 0.42354,0.0294 0.99579,0.0426 1.71478,0.046 1.43796,0.007 3.45163,-0.033 5.90303,-0.11623 4.90278,-0.16645 11.55147,-0.50286 18.76823,-0.96922 67.59931,-4.36838 103.97642,-5.47474 180.63024,-5.49517 80.83151,-0.0216 115.00508,1.18945 174.67459,6.1881 201.04971,16.84236 358.49261,66.36576 472.40281,148.53414 54.0453,38.98509 104.4765,90.92221 138.6928,142.82845 29.7045,45.06193 55.7044,99.06202 71.8539,149.23579 1.2111,3.7626 2.415,7.183 3.3835,9.6725 0.4844,1.2448 0.9081,2.2544 1.2522,2.9713 0.172,0.3583 0.3205,0.6401 0.4627,0.8595 0.071,0.1101 0.1382,0.2041 0.228,0.2961 0.09,0.092 0.2011,0.2389 0.5174,0.2389 0.3164,0 0.4278,-0.1471 0.5176,-0.2389 0.09,-0.092 0.157,-0.1864 0.228,-0.2961 0.1422,-0.2194 0.2907,-0.5012 0.4627,-0.8595 0.344,-0.7169 0.77,-1.7265 1.2543,-2.9713 0.9686,-2.4895 2.1724,-5.9099 3.3835,-9.6725 16.1495,-50.17377 42.1471,-104.17386 71.8517,-149.23579 34.2162,-51.90624 84.6476,-103.84336 138.6928,-142.82845 113.9103,-82.16838 271.3531,-131.69178 472.4029,-148.53414 59.6695,-4.99865 93.843,-6.20965 174.6746,-6.1881 76.6537,0.0204 113.031,1.12679 180.6302,5.49517 7.2169,0.4665 13.8654,0.8028 18.7682,0.96922 2.4515,0.0832 4.4652,0.12324 5.903,0.11623 0.719,-0.003 1.2935,-0.0166 1.717,-0.046 0.2119,-0.0147 0.3836,-0.0331 0.533,-0.0592 0.074,-0.013 0.1435,-0.028 0.2192,-0.0527 0.075,-0.0247 0.1613,-0.0384 0.296,-0.17323 0.2215,-0.22155 0.2002,-0.35833 0.2193,-0.49338 0.019,-0.13505 0.022,-0.27553 0.022,-0.44076 0,-0.33045 -0.03,-0.75669 -0.083,-1.28278 -0.1066,-1.0522 -0.3105,-2.50084 -0.5942,-4.25405 -0.5677,-3.50642 -1.4571,-8.22288 -2.5305,-13.31692 -7.1192,-33.78264 -9.2611,-54.92404 -9.3699,-92.48381 -0.1066,-36.69217 1.0514,-49.00097 7.756,-82.41663 10.4771,-52.21894 36.4797,-108.19088 72.4525,-155.92608 47.2129,-62.65083 117.5826,-120.99257 207.3605,-171.883152 39.2328,-22.239046 99.9788,-51.292817 146.1725,-69.9110562 l 20.8536,-8.4050298 -0.2083,-1.083242 -502.7667,-0.392514 c -138.261,-0.107927 -264.005,-0.154684 -355.2149,-0.142532 -45.605,0.0061 -82.576,0.02641 -108.1625,0.0614 -12.7932,0.01749 -22.7404,0.039 -29.4976,0.06359 -3.3786,0.01229 -5.9595,0.02541 -7.7011,0.03947 -0.8708,0.0071 -1.5325,0.01442 -1.98,0.02193 -0.2239,0.0037 -0.3932,0.007 -0.5132,0.011 -0.06,0.002 -0.1056,0.0061 -0.1469,0.0088 -0.02,0.0013 -0.04,9.14e-4 -0.069,0.0044 -0.028,0.0035 -0.3388,0.163474 -0.3398,0.16446 -0.1197,0.119705 -0.1202,0.15983 -0.1426,0.208321 -0.022,0.0485 -0.039,0.09453 -0.057,0.144718 -0.036,0.100371 -0.074,0.220726 -0.1184,0.370586 -0.088,0.299732 -0.1974,0.712476 -0.329,1.232362 -0.2631,1.03977 -0.6113,2.505084 -1.0218,4.2935163 -0.821,3.5768527 -1.8903,8.44398785 -3.0085,13.7401244 -19.9582,94.5267043 -58.3789,152.9561483 -119.6659,182.1981083 -24.1492,11.52235 -43.3284,16.51368 -98.764,25.68873 -53.0981,8.78813 -72.9101,10.78492 -107.8072,10.87412 -18.3009,0.0467 -30.2043,-0.45477 -38.624,-2.03711 -8.4197,-1.58235 -13.3344,-4.20788 -17.8517,-8.49494 -2.2673,-2.15188 -3.5295,-3.68206 -4.6574,-6.7341 -1.1282,-3.05205 -2.0885,-7.64043 -3.5897,-15.72243 -3.9601,-21.32045 -5.8098,-41.681 -8.0608,-88.84594 -0.9218,-19.314015 -2.3776,-40.336564 -3.2541,-46.849322 -0.8706,-6.471812 -2.3408,-13.815065 -3.822,-19.695789 -0.7407,-2.940351 -1.4835,-5.513394 -2.1599,-7.438 -0.3383,-0.962292 -0.6579,-1.762554 -0.9627,-2.376994 -0.3049,-0.614452 -0.5332,-1.048191 -0.9802,-1.324458 -0.1424,-0.08802 -0.3432,-0.128944 -0.5087,-0.103065 -0.1656,0.02582 -0.2908,0.09835 -0.3903,0.173235 -0.1992,0.149703 -0.3275,0.326856 -0.4606,0.54381 -0.2658,0.433908 -0.5209,1.036245 -0.7915,1.802489 -0.5411,1.532475 -1.1145,3.706526 -1.603,6.185912 -2.9458,14.949829 -18.2692,75.206812 -22.7986,89.652902 -1.6962,5.40996 -2.9059,8.78624 -3.8966,10.66362 -0.4953,0.93868 -0.9376,1.48884 -1.2872,1.74109 -0.3495,0.25225 -0.5721,0.27365 -0.9451,0.16226 -10.4944,-3.13415 -35.03,-4.64217 -59.6356,-4.64217 -24.6055,0 -49.1389,1.50802 -59.6333,4.64217 -0.373,0.11138 -0.5955,0.09 -0.9451,-0.16226 -0.3496,-0.25225 -0.7941,-0.80241 -1.2893,-1.74109 -0.9907,-1.87738 -2.2004,-5.25366 -3.8966,-10.66362 -4.5295,-14.44609 -19.8529,-74.703084 -22.7987,-89.652902 -0.4885,-2.479386 -1.0596,-4.653449 -1.6008,-6.185912 -0.2706,-0.766232 -0.5279,-1.366403 -0.7938,-1.8003 -0.1329,-0.216942 -0.2591,-0.396285 -0.4582,-0.545999 -0.1,-0.07489 -0.227,-0.147346 -0.3926,-0.173235 -0.1656,-0.02594 -0.3639,0.01493 -0.5065,0.103065 -0.447,0.276267 -0.6753,0.710006 -0.9802,1.324458 -0.3048,0.61444 -0.6265,1.414702 -0.9648,2.376994 -0.6765,1.924606 -1.4171,4.497649 -2.1578,7.438 -1.4812,5.880724 -2.9535,13.223977 -3.8242,19.695789 -0.8762,6.512713 -2.3323,27.535307 -3.2542,46.849322 -2.2509,47.16494 -4.0984,67.52549 -8.0585,88.84594 -1.5012,8.082 -2.4615,12.67038 -3.5896,15.72243 -1.128,3.05204 -2.3901,4.58222 -4.6575,6.7341 -4.5173,4.28706 -9.4341,6.9126 -17.8539,8.49494 -8.4197,1.58233 -20.3231,2.08379 -38.6241,2.03711 -34.897,-0.0891 -54.7068,-2.08599 -107.8049,-10.87412 -55.4356,-9.17505 -74.6148,-14.16638 -98.764,-25.68873 -61.2869,-29.24196 -99.7099,-87.671404 -119.668,-182.1981083 -1.1182,-5.29614777 -2.1875,-10.1632717 -3.0085,-13.7401244 -0.4105,-1.7884323 -0.7587,-3.2537463 -1.0219,-4.2935163 -0.1316,-0.519886 -0.2411,-0.93263 -0.3289,-1.232362 -0.044,-0.14986 -0.082,-0.270249 -0.1184,-0.370586 -0.018,-0.05019 -0.035,-0.09622 -0.057,-0.144718 -0.022,-0.0485 -0.021,-0.08858 -0.1403,-0.208321 -10e-4,-9.86e-4 -0.3142,-0.160989 -0.3421,-0.16446 -0.028,-0.0035 -0.045,-0.003 -0.066,-0.0044 -0.041,-0.0027 -0.087,-0.0067 -0.1469,-0.0088 -0.1199,-0.004 -0.2915,-0.0072 -0.5153,-0.011 -0.4476,-0.0075 -1.1071,-0.0149 -1.9779,-0.02193 -1.7416,-0.01406 -4.3226,-0.02718 -7.7011,-0.03947 -6.7572,-0.02459 -16.70442,-0.0461 -29.49767,-0.06359 -25.58649,-0.03498 -62.55736,-0.05533 -108.16237,-0.0614 z m 0,1.122721 c 45.60476,0.0056 82.57458,0.02638 108.16019,0.06141 12.79281,0.01751 22.74,0.03907 29.4954,0.06354 3.3778,0.01224 5.9585,0.02549 7.6968,0.03952 0.8691,0.0067 1.528,0.01448 1.9691,0.02189 0.1324,0.0022 0.2037,0.0045 0.2961,0.0067 0.011,0.03727 0.018,0.05456 0.031,0.09869 0.081,0.274998 0.1883,0.680367 0.318,1.192887 0.2594,1.025029 0.6058,2.485684 1.0152,4.2693893 0.8189,3.5674218 1.8871,8.42746141 3.0042,13.7181977 19.999,94.720452 58.6346,153.567061 120.282,182.980951 24.2444,11.56771 43.605,16.60405 99.0645,25.78302 53.1154,8.791 73.0478,10.80025 107.9869,10.88947 18.3225,0.0467 30.2689,-0.4449 38.8346,-2.05467 8.5656,-1.60974 13.7687,-4.37485 18.4174,-8.78656 2.3128,-2.19496 3.7558,-3.95836 4.9381,-7.15732 1.1823,-3.19896 2.1372,-7.81775 3.6401,-15.90881 3.972,-21.38501 5.8267,-41.81843 8.0783,-88.99725 0.921,-19.296361 2.3878,-40.393223 3.2432,-46.750653 0.8633,-6.417293 2.3299,-13.736318 3.8001,-19.572987 0.7351,-2.918334 1.4715,-5.467901 2.1293,-7.339324 0.3288,-0.935706 0.6409,-1.703139 0.9122,-2.249824 0.1856,-0.37419 0.2805,-0.461739 0.3859,-0.594242 0.1857,0.308343 0.428,0.848527 0.6798,1.561272 0.5126,1.451786 1.0787,3.590213 1.559,6.028025 2.9777,15.111804 18.25,75.165703 22.8293,89.771333 1.7017,5.42729 2.9038,8.82109 3.9755,10.85219 0.5359,1.01555 1.0354,1.70318 1.6228,2.12702 0.5873,0.42385 1.2936,0.51689 1.923,0.32892 10.1239,-3.02346 34.7545,-4.59612 59.3132,-4.59612 24.5588,0 49.1895,1.57266 59.3133,4.59612 0.6294,0.18797 1.3357,0.095 1.9231,-0.32892 0.5873,-0.42384 1.089,-1.11147 1.6249,-2.12702 1.0717,-2.0311 2.2738,-5.4249 3.9755,-10.85219 4.5795,-14.60563 19.8493,-74.659541 22.8271,-89.771333 0.4803,-2.4378 1.0464,-4.576251 1.5591,-6.028025 0.2518,-0.712745 0.4941,-1.252941 0.6797,-1.561272 0.1056,0.132424 0.2025,0.219861 0.3883,0.594242 0.2711,0.546685 0.5811,1.314118 0.9099,2.249824 0.6578,1.871423 1.3942,4.42099 2.1293,7.339324 1.47,5.836669 2.9368,13.155694 3.8,19.572987 0.8556,6.357385 2.3244,27.454292 3.2455,46.750653 2.2516,47.17882 4.1041,67.61224 8.076,88.99725 1.5029,8.09107 2.4577,12.70986 3.6401,15.90881 1.1823,3.19896 2.6254,4.96236 4.9382,7.15732 4.6487,4.41171 9.8539,7.17681 18.4196,8.78656 8.5656,1.60977 20.512,2.10144 38.8345,2.05467 34.939,-0.0892 54.8693,-2.09847 107.9848,-10.88947 55.4593,-9.17897 74.8201,-14.21531 99.0644,-25.78302 61.6474,-29.41389 100.283,-88.260499 120.2821,-182.980951 1.1171,-5.29074751 2.1854,-10.1507759 3.0042,-13.7181977 0.4093,-1.7837053 0.7558,-3.2443603 1.0152,-4.2693893 0.1297,-0.51252 0.2395,-0.917889 0.3201,-1.192887 0.013,-0.04412 0.019,-0.06141 0.03,-0.09869 0.092,-0.0022 0.1643,-0.0045 0.296,-0.0067 0.4411,-0.0079 1.1,-0.01493 1.9691,-0.02189 1.7384,-0.01403 4.3191,-0.02717 7.6968,-0.03952 6.7555,-0.02459 16.7004,-0.04614 29.4932,-0.06354 25.5857,-0.03503 62.5577,-0.05535 108.1624,-0.06141 91.2096,-0.01213 216.9521,0.03458 355.2128,0.142529 l 499.8809,0.390324 -18.1783,7.3261656 C 2971.3082,11.728655 2910.555,40.78393 2871.2547,63.061261 2781.3754,114.00925 2710.8861,172.43554 2663.552,235.24702 c -36.0699,47.86434 -62.1392,103.96375 -72.6564,156.38218 -6.71,33.44353 -7.8847,45.92142 -7.7778,82.63811 0.1089,37.60135 2.2646,58.88108 9.3939,92.71186 1.0704,5.07942 1.9561,9.78567 2.5196,13.26648 0.2817,1.7404 0.4825,3.17586 0.5855,4.18826 0.052,0.5062 0.077,0.90982 0.079,1.17534 1e-4,0.0316 0,0.0382 0,0.0658 -0.077,0.009 -0.1332,0.0186 -0.2435,0.0263 -0.3792,0.0263 -0.9365,0.0404 -1.6424,0.0439 -1.4115,0.007 -3.4183,-0.0333 -5.8613,-0.11622 -4.8859,-0.16584 -11.5259,-0.50115 -18.7331,-0.96703 -67.613,-4.36926 -104.0382,-5.47691 -180.7027,-5.49736 -80.8428,-0.0216 -115.0788,1.18992 -174.7688,6.19029 -201.1837,16.85357 -358.8295,66.41215 -472.9643,148.74246 -54.1602,39.06798 -104.6677,91.0824 -138.9735,143.12447 -29.7657,45.15468 -55.8003,99.2231 -71.9855,149.50764 -1.2053,3.745 -2.4028,7.1503 -3.3594,9.6089 -0.4781,1.2294 -0.8977,2.2228 -1.2191,2.8924 -0.081,0.1674 -0.1308,0.2444 -0.1974,0.3683 -0.066,-0.1238 -0.1149,-0.2012 -0.1951,-0.3683 -0.3215,-0.6696 -0.741,-1.663 -1.2192,-2.8924 -0.9565,-2.4586 -2.1563,-5.8639 -3.3616,-9.6089 -16.1852,-50.28454 -42.2177,-104.35297 -71.9832,-149.50764 C 1413.9794,825.17975 1363.472,773.16533 1309.3118,734.09735 1195.177,651.76703 1037.5289,602.20846 836.34531,585.35489 c -59.69004,-5.00037 -93.92607,-6.21186 -174.76888,-6.19029 -76.66455,0.0204 -113.08961,1.1281 -180.70261,5.49736 -7.20716,0.46574 -13.84724,0.80115 -18.73314,0.96703 -2.44295,0.083 -4.44766,0.12308 -5.85918,0.11622 -0.70576,-0.003 -1.26538,-0.0175 -1.64461,-0.0439 -0.11025,-0.008 -0.16645,-0.0174 -0.2434,-0.0263 -5.5e-4,-0.0276 -0.002,-0.0342 -0.002,-0.0658 0.001,-0.26552 0.0275,-0.66914 0.0789,-1.17534 0.10295,-1.0124 0.30377,-2.44786 0.58548,-4.18826 0.56343,-3.48081 1.44915,-8.18706 2.51954,-13.26648 7.12924,-33.83078 9.28675,-55.11052 9.39617,-92.71186 0.10689,-36.71669 -1.06781,-49.19458 -7.77788,-82.63811 C 448.67626,339.21078 422.60486,283.11136 386.53483,235.24702 339.19949,172.43554 268.7101,114.00925 178.83085,63.061261 139.53061,40.78393 78.777408,11.728655 32.524609,-6.9133864 L 14.348435,-14.239552 514.22719,-14.629876 c 138.26075,-0.107893 264.00542,-0.154688 355.21492,-0.142529 z"
       id="path4180"
       inkscape:connector-curvature="0" />
  </g>
</svg>
